<?xml version="1.0" encoding="utf-8"?>
<!-- Generator: Adobe Illustrator 16.0.0, SVG Export Plug-In . SVG Version: 6.00 Build 0)  -->
<!DOCTYPE svg PUBLIC "-//W3C//DTD SVG 1.1//EN" "http://www.w3.org/Graphics/SVG/1.1/DTD/svg11.dtd">
<svg version="1.1" id="Layer_1" xmlns="http://www.w3.org/2000/svg" xmlns:xlink="http://www.w3.org/1999/xlink" x="0px" y="0px"
	 width="186.212px" height="36.975px" viewBox="0 0 186.212 36.975" enable-background="new 0 0 186.212 36.975"
	 xml:space="preserve">
<g>
	<g>
		<g>
			<g>
				<path fill="#8FC31F" d="M17.609,35.566C11.612,31.447,6.954,25.541,4.416,18.602c-1.077-2.945-1.772-6.081-2.026-9.333
					c-1.148,2.453-1.793,5.197-1.793,8.093c0,9.506,6.934,17.395,16.021,18.875c0.781,0.128,1.576,0.206,2.389,0.235
					c-0.291-0.179-0.577-0.363-0.862-0.548C17.964,35.805,17.785,35.68,17.609,35.566z"/>
				<path fill="#8FC31F" d="M10.509,17.361c0,6.802,3.555,12.774,8.9,16.167c-2.476-4.826-3.877-10.288-3.877-16.075
					c0-5.904,1.455-11.458,4.018-16.347C14.125,4.484,10.509,10.5,10.509,17.361z"/>
				<path fill="#8FC31F" d="M40.786,9.172c-0.242,3.219-0.916,6.328-1.968,9.251c-2.527,7.031-7.233,13.024-13.303,17.167
					c-0.165,0.12-0.328,0.228-0.496,0.334c-0.285,0.185-0.571,0.369-0.857,0.548c0.815-0.029,1.621-0.099,2.405-0.229
					c9.103-1.478,16.059-9.361,16.059-18.882C42.626,14.426,41.965,11.657,40.786,9.172z"/>
				<path fill="#8FC31F" d="M32.636,17.361c0-6.846-3.597-12.847-9.006-16.224c2.561,4.874,4.009,10.422,4.009,16.317
					c0,5.777-1.396,11.233-3.865,16.044C29.1,30.102,32.636,24.146,32.636,17.361z"/>
			</g>
		</g>
	</g>
	<g>
		<g>
			<path fill="#003A4A" d="M118.563,11.892c-0.061-0.044-0.123-0.089-0.184-0.132c-0.064-0.045-0.127-0.092-0.193-0.137
				c-0.058-0.039-0.119-0.077-0.178-0.117c-1.531-1.002-3.317-1.665-5.265-1.866c-6.5-0.668-12.312,4.061-12.98,10.56
				c-0.498,4.854,2.014,9.323,6.022,11.554c0.219,0.121,0.442,0.233,0.668,0.342c0.165,0.077,0.33,0.152,0.496,0.224
				c5.211,2.25,11.093,1.144,15.125-2.443l-1.195-1.209l-1.886-1.912c-1.097,0.933-2.422,1.631-3.915,1.995
				c-0.702,0.169-1.402,0.254-2.095,0.267c-0.041,0.001-0.083,0.001-0.122,0.001c-0.067,0-0.134,0.001-0.201,0
				c-0.176-0.001-0.353-0.01-0.53-0.025c-0.602-0.048-1.208-0.171-1.807-0.369c-2.406-0.806-4.145-2.693-4.859-4.939h1.021h10.859
				h2.693h1.344h1.763c0.068-0.349,0.123-0.704,0.162-1.064C123.748,18.307,121.813,14.299,118.563,11.892z M105.669,19.231
				c0.012-0.059,0.021-0.119,0.033-0.18c0.292-1.357,1-2.518,1.958-3.382c0.037-0.033,0.073-0.066,0.11-0.099
				c0.041-0.035,0.081-0.067,0.122-0.1c0.037-0.033,0.077-0.063,0.116-0.094c1.431-1.114,3.328-1.612,5.239-1.201
				c2.587,0.555,4.462,2.61,4.917,5.056H105.669z"/>
			<path fill="#003A4A" d="M144.353,11.892c-0.06-0.044-0.121-0.089-0.184-0.132c-0.063-0.045-0.127-0.092-0.191-0.137
				c-0.06-0.039-0.12-0.077-0.179-0.117c-1.533-1.002-3.317-1.665-5.265-1.866c-6.502-0.668-12.313,4.061-12.98,10.56
				c-0.5,4.854,2.012,9.323,6.022,11.554c0.219,0.121,0.441,0.233,0.668,0.342c0.165,0.077,0.328,0.152,0.496,0.224
				c5.21,2.25,11.092,1.144,15.125-2.443l-1.195-1.209l-1.887-1.912c-1.097,0.933-2.42,1.631-3.915,1.995
				c-0.701,0.169-1.401,0.254-2.094,0.267c-0.041,0.001-0.082,0.001-0.124,0.001c-0.066,0-0.133,0.001-0.198,0
				c-0.178-0.001-0.354-0.01-0.531-0.025c-0.603-0.048-1.209-0.171-1.807-0.369c-2.408-0.806-4.146-2.693-4.86-4.939h1.022h10.859
				h2.692h1.345h1.763c0.068-0.349,0.123-0.704,0.159-1.064C149.539,18.307,147.604,14.299,144.353,11.892z M131.459,19.231
				c0.011-0.059,0.021-0.119,0.034-0.18c0.292-1.357,0.998-2.518,1.957-3.382c0.036-0.033,0.073-0.066,0.111-0.099
				c0.04-0.035,0.081-0.067,0.12-0.1c0.039-0.033,0.078-0.063,0.118-0.094c1.432-1.114,3.326-1.612,5.239-1.201
				c2.587,0.555,4.462,2.61,4.915,5.056H131.459z"/>
			<path fill="#003A4A" d="M92.849,11.892c-0.06-0.044-0.121-0.089-0.183-0.132c-0.063-0.045-0.127-0.092-0.191-0.137
				c-0.06-0.039-0.119-0.077-0.18-0.117c-1.533-1.002-3.317-1.665-5.265-1.866c-6.502-0.668-12.314,4.061-12.982,10.56
				c-0.497,4.854,2.012,9.323,6.024,11.554c0.218,0.121,0.442,0.233,0.667,0.342c0.166,0.077,0.33,0.152,0.497,0.224
				c5.211,2.25,11.093,1.144,15.125-2.443l-1.194-1.209l-1.887-1.912c-1.096,0.933-2.42,1.631-3.915,1.995
				c-0.701,0.169-1.402,0.254-2.095,0.267c-0.04,0.001-0.082,0.001-0.122,0.001c-0.067,0-0.135,0.001-0.201,0
				c-0.176-0.001-0.353-0.01-0.53-0.025c-0.603-0.048-1.21-0.171-1.807-0.369c-2.406-0.806-4.146-2.693-4.86-4.939h1.022h10.859
				h2.693h1.344h1.763c0.068-0.349,0.123-0.704,0.161-1.064C98.035,18.307,96.101,14.299,92.849,11.892z M79.955,19.231
				c0.012-0.059,0.021-0.119,0.034-0.18c0.291-1.357,0.999-2.518,1.956-3.382c0.038-0.033,0.075-0.066,0.112-0.099
				c0.04-0.035,0.08-0.067,0.119-0.1c0.04-0.033,0.079-0.063,0.118-0.094c1.432-1.114,3.329-1.612,5.241-1.201
				c2.586,0.555,4.462,2.61,4.915,5.056H79.955z"/>
			<path fill="#003A4A" d="M169.707,6.357v7.172c-1.985-1.968-4.666-3.178-7.618-3.178c-6.113,0-11.07,5.18-11.07,11.568
				c0,6.389,4.957,11.567,11.07,11.567c2.952,0,5.633-1.209,7.618-3.179v3.179h5.146V4.211L169.707,6.357z M162.612,28.346
				c-3.461,0-6.266-2.878-6.266-6.427c0-3.549,2.805-6.426,6.266-6.426c3.459,0,6.262,2.876,6.262,6.426
				C168.874,25.468,166.071,28.346,162.612,28.346z"/>
			<path fill="#003A4A" d="M64.505,23.861c1.389,0.075,2.157,0.767,2.369,1.67c0.287,1.236-0.67,2.398-1.553,2.797
				c-2.396,1.074-7.489,0.205-10.265-2.087l-2.532,3.757c3.37,2.728,6.608,3.488,9.89,3.488c5.317,0,9.397-2.365,9.397-7.469
				c0-8.067-9.51-6.803-11.597-7.456c-0.884-0.277-1.854-0.738-1.912-2.29c-0.05-1.358,0.984-2.381,2.152-2.555
				c2.885-0.427,5.465,0.623,7.606,2.189l2.888-3.324c-3.149-2.255-5.74-3.002-8.857-3.002c-4.952,0-8.985,2.719-8.985,7.392
				C53.744,24.133,62.04,23.728,64.505,23.861z"/>
		</g>
		<g>
			<path fill="#B5B5B6" d="M184.834,10.904h-1.466v1.018h-0.878v-1.018h-2.135c-0.563,0-0.806,0.151-0.806,0.6
				c0,0.2,0.03,0.353,0.06,0.459l-0.843,0.018c-0.067-0.172-0.139-0.477-0.139-0.849c0-0.429,0.143-0.658,0.382-0.878
				c0.266-0.247,0.686-0.362,1.296-0.362h2.185V9.09h0.878v0.802h1.188L184.834,10.904z"/>
			<path fill="#B5B5B6" d="M184.009,13.981h-2.862c-0.325,0-0.594,0.032-0.808,0.1c-0.213,0.067-0.381,0.159-0.505,0.282
				c-0.123,0.119-0.212,0.261-0.263,0.419c-0.05,0.159-0.077,0.331-0.077,0.516c0,0.412,0.137,0.747,0.406,1
				c0.271,0.255,0.695,0.382,1.273,0.382h2.835v0.991h-5.287v-0.905h0.573v-0.019c-0.229-0.133-0.404-0.343-0.524-0.626
				c-0.121-0.281-0.182-0.593-0.182-0.93c0-0.305,0.047-0.586,0.139-0.84c0.091-0.255,0.221-0.476,0.385-0.667
				c0.192-0.223,0.445-0.395,0.765-0.516c0.318-0.122,0.74-0.182,1.27-0.182h2.862V13.981z"/>
			<path fill="#B5B5B6" d="M178.722,23.423h0.754v-0.019c-0.293-0.209-0.514-0.476-0.663-0.801
				c-0.147-0.326-0.224-0.681-0.224-1.069c0-0.438,0.077-0.829,0.234-1.168c0.155-0.341,0.363-0.627,0.619-0.864
				c0.257-0.236,0.553-0.414,0.882-0.534c0.332-0.121,0.672-0.18,1.021-0.18c0.324,0,0.653,0.055,0.983,0.165
				c0.33,0.112,0.631,0.281,0.901,0.507c0.271,0.225,0.491,0.51,0.662,0.853c0.172,0.344,0.258,0.75,0.258,1.221
				c0,0.369-0.071,0.713-0.215,1.031c-0.142,0.317-0.335,0.572-0.577,0.762v0.021h1.848l0.391,0.991h-6.875V23.423z M181.356,23.423
				c0.279,0,0.534-0.047,0.767-0.142c0.232-0.095,0.432-0.227,0.597-0.391c0.166-0.166,0.294-0.36,0.386-0.582
				c0.093-0.222,0.139-0.461,0.139-0.715c0-0.304-0.059-0.571-0.175-0.797c-0.12-0.227-0.271-0.416-0.453-0.567
				c-0.187-0.154-0.389-0.266-0.612-0.338c-0.223-0.073-0.438-0.11-0.647-0.11c-0.243,0-0.474,0.043-0.697,0.132
				c-0.223,0.089-0.421,0.214-0.591,0.373c-0.173,0.158-0.312,0.35-0.416,0.573c-0.105,0.221-0.158,0.463-0.158,0.724
				s0.052,0.503,0.149,0.726s0.232,0.416,0.4,0.582c0.168,0.165,0.365,0.296,0.591,0.391
				C180.86,23.376,181.101,23.423,181.356,23.423z"/>
			<path fill="#B5B5B6" d="M184.519,26.709v-0.993h1.078v0.993H184.519z M178.722,26.709v-0.993h5.041v0.993H178.722z"/>
			<path fill="#B5B5B6" d="M181.384,33.481c-0.323,0-0.651-0.065-0.982-0.195c-0.33-0.131-0.63-0.316-0.896-0.558
				c-0.268-0.243-0.486-0.54-0.659-0.897c-0.171-0.355-0.257-0.757-0.257-1.201c0-0.445,0.084-0.846,0.253-1.198
				s0.387-0.652,0.652-0.896c0.269-0.245,0.568-0.432,0.902-0.563c0.334-0.132,0.669-0.197,1.007-0.197
				c0.363,0,0.709,0.073,1.04,0.215c0.33,0.144,0.622,0.343,0.873,0.597c0.25,0.255,0.453,0.556,0.604,0.903
				c0.154,0.346,0.229,0.726,0.229,1.14c0,0.399-0.073,0.772-0.219,1.119c-0.147,0.348-0.346,0.649-0.597,0.907
				c-0.25,0.257-0.545,0.46-0.882,0.606C182.115,33.409,181.76,33.481,181.384,33.481z M181.384,32.489
				c0.235,0,0.466-0.044,0.688-0.134c0.223-0.088,0.422-0.216,0.596-0.376c0.176-0.162,0.315-0.357,0.419-0.587
				c0.106-0.229,0.158-0.484,0.158-0.763c0-0.281-0.052-0.535-0.158-0.765c-0.104-0.229-0.243-0.425-0.419-0.587
				c-0.174-0.161-0.375-0.287-0.601-0.377c-0.226-0.089-0.456-0.132-0.691-0.132c-0.242,0-0.475,0.043-0.697,0.132
				c-0.222,0.09-0.423,0.217-0.601,0.383c-0.178,0.164-0.32,0.36-0.425,0.587c-0.105,0.225-0.158,0.478-0.158,0.759
				c0,0.266,0.052,0.513,0.152,0.738c0.104,0.227,0.242,0.423,0.416,0.592c0.176,0.168,0.378,0.299,0.606,0.392
				C180.897,32.443,181.136,32.489,181.384,32.489z"/>
			<g>
				<path fill="#B5B5B6" d="M179.966,4.216l0.37,0.705c-0.62,0.315-0.919,0.798-0.919,1.453c0,0.641,0.206,1.075,0.685,1.075
					c0.456,0,0.669-0.328,0.926-1.197c0.298-1.017,0.577-1.836,1.581-1.836c0.896,0,1.488,0.732,1.488,1.801
					c0,1.041-0.514,1.652-1.134,1.973l-0.448-0.648c0.527-0.314,0.77-0.762,0.77-1.332c0-0.584-0.214-0.918-0.599-0.918
					c-0.491,0-0.655,0.378-0.911,1.239c-0.292,0.997-0.62,1.795-1.608,1.795c-0.862,0-1.538-0.734-1.538-1.987
					C178.628,5.291,179.168,4.551,179.966,4.216z"/>
			</g>
		</g>
	</g>
</g>
</svg>
